<?xml version="1.0" encoding="UTF-8"?>
<!DOCTYPE svg PUBLIC "-//W3C//DTD SVG 1.1//EN" "http://www.w3.org/Graphics/SVG/1.1/DTD/svg11.dtd">
<svg xmlns="http://www.w3.org/2000/svg" version="1.1" width="600px" height="600px" style="shape-rendering:geometricPrecision; text-rendering:geometricPrecision; image-rendering:optimizeQuality; fill-rule:evenodd; clip-rule:evenodd" xmlns:xlink="http://www.w3.org/1999/xlink">
<g><path style="opacity:1" fill="#fefefe" d="M -0.5,-0.5 C 199.5,-0.5 399.5,-0.5 599.5,-0.5C 599.5,199.5 599.5,399.5 599.5,599.5C 399.5,599.5 199.5,599.5 -0.5,599.5C -0.5,399.5 -0.5,199.5 -0.5,-0.5 Z"/></g>
<g><path style="opacity:1" fill="#39b5ab" d="M 381.5,177.5 C 382.239,177.369 382.906,177.536 383.5,178C 380.982,184.063 378.649,190.229 376.5,196.5C 373.627,191.921 370.627,187.421 367.5,183C 367.645,182.228 367.978,181.561 368.5,181C 373.042,180.133 377.375,178.967 381.5,177.5 Z"/></g>
<g><path style="opacity:1" fill="#2eb4a9" d="M 230.5,186.5 C 231.833,186.5 233.167,186.5 234.5,186.5C 232.437,193.571 229.437,200.238 225.5,206.5C 220.94,201.727 216.607,196.727 212.5,191.5C 218.838,190.575 224.838,188.909 230.5,186.5 Z"/></g>
<g><path style="opacity:1" fill="#fe1009" d="M 147.5,201.5 C 150.492,205.827 153.492,210.161 156.5,214.5C 156.402,216.553 157.069,218.22 158.5,219.5C 159.167,219.833 159.833,220.167 160.5,220.5C 163.197,223.915 164.864,227.915 165.5,232.5C 162.387,232.948 159.72,234.282 157.5,236.5C 149.247,240.897 141.247,245.563 133.5,250.5C 132.167,251.167 130.833,251.833 129.5,252.5C 127.326,252.75 125.659,253.75 124.5,255.5C 123.833,255.5 123.5,255.833 123.5,256.5C 122.391,256.557 121.391,256.89 120.5,257.5C 118.147,258.34 116.147,259.674 114.5,261.5C 113.29,261.932 112.29,262.599 111.5,263.5C 108.911,263.461 106.911,264.461 105.5,266.5C 104.833,266.5 104.5,266.833 104.5,267.5C 102.821,267.892 101.154,268.392 99.5,269C 94.6786,271.997 90.012,275.163 85.5,278.5C 84.5084,278.328 83.8417,278.662 83.5,279.5C 81.4176,279.472 79.5843,280.139 78,281.5C 77.2917,280.619 76.4584,279.953 75.5,279.5C 75.5,279.167 75.5,278.833 75.5,278.5C 74.4213,274.575 72.4213,271.242 69.5,268.5C 66.2319,263.625 63.2319,258.625 60.5,253.5C 60.9371,251.926 61.9371,250.759 63.5,250C 71.0316,245.738 78.3649,241.238 85.5,236.5C 86.1667,236.167 86.8333,235.833 87.5,235.5C 90.3311,234.921 92.6644,233.588 94.5,231.5C 95.609,231.443 96.609,231.11 97.5,230.5C 101.046,229.281 104.046,227.281 106.5,224.5C 109.778,223.313 112.778,221.647 115.5,219.5C 117.153,219.34 118.486,218.674 119.5,217.5C 121.308,217.509 122.975,217.009 124.5,216C 126.5,214.333 128.5,212.667 130.5,211C 136.411,208.101 142.078,204.935 147.5,201.5 Z"/></g>
<g><path style="opacity:1" fill="#b1200f" d="M 133.5,204.5 C 134.873,204.343 136.207,204.51 137.5,205C 130.617,208.604 123.95,212.437 117.5,216.5C 108.735,217.815 100.068,217.815 91.5,216.5C 94.7961,215.576 98.1295,214.576 101.5,213.5C 104.428,213.435 107.095,212.768 109.5,211.5C 117.457,208.911 125.457,206.578 133.5,204.5 Z"/></g>
<g><path style="opacity:1" fill="#de7672" d="M 147.5,201.5 C 142.078,204.935 136.411,208.101 130.5,211C 128.5,212.667 126.5,214.333 124.5,216C 122.975,217.009 121.308,217.509 119.5,217.5C 119.158,216.662 118.492,216.328 117.5,216.5C 123.95,212.437 130.617,208.604 137.5,205C 136.207,204.51 134.873,204.343 133.5,204.5C 137.942,203.01 142.609,202.01 147.5,201.5 Z"/></g>
<g><path style="opacity:1" fill="#c98a87" d="M 109.5,211.5 C 107.095,212.768 104.428,213.435 101.5,213.5C 103.838,211.96 106.505,211.294 109.5,211.5 Z"/></g>
<g><path style="opacity:1" fill="#f9827e" d="M 156.5,214.5 C 157.401,215.29 158.068,216.29 158.5,217.5C 158.5,218.167 158.5,218.833 158.5,219.5C 157.069,218.22 156.402,216.553 156.5,214.5 Z"/></g>
<g><path style="opacity:1" fill="#97776e" d="M 91.5,216.5 C 100.068,217.815 108.735,217.815 117.5,216.5C 118.492,216.328 119.158,216.662 119.5,217.5C 118.486,218.674 117.153,219.34 115.5,219.5C 105.681,218.506 95.6806,218.173 85.5,218.5C 85.8168,222.702 85.4834,226.702 84.5,230.5C 84.8168,226.298 84.4834,222.298 83.5,218.5C 85.78,216.777 88.4467,216.111 91.5,216.5 Z"/></g>
<g><path style="opacity:1" fill="#5dbcb2" d="M 158.5,217.5 C 274.5,217.5 390.5,217.5 506.5,217.5C 506.5,248.167 506.5,278.833 506.5,309.5C 506.167,309.5 505.833,309.5 505.5,309.5C 505.5,279.167 505.5,248.833 505.5,218.5C 390.162,217.835 275.162,218.502 160.5,220.5C 159.833,220.167 159.167,219.833 158.5,219.5C 158.5,218.833 158.5,218.167 158.5,217.5 Z"/></g>
<g><path style="opacity:1" fill="#1fb2a7" d="M 505.5,309.5 C 504.508,309.328 503.842,309.662 503.5,310.5C 502.532,312.607 502.198,314.941 502.5,317.5C 362.833,317.5 223.167,317.5 83.5,317.5C 83.5,305.167 83.5,292.833 83.5,280.5C 83.5,280.167 83.5,279.833 83.5,279.5C 83.8417,278.662 84.5084,278.328 85.5,278.5C 87.258,278.123 88.9246,277.456 90.5,276.5C 91.086,276.709 91.586,277.043 92,277.5C 96.401,274.245 100.568,270.911 104.5,267.5C 104.5,266.833 104.833,266.5 105.5,266.5C 107.459,272.75 108.126,279.416 107.5,286.5C 118.755,288.365 122.921,283.699 120,272.5C 118.745,267.503 118.912,262.503 120.5,257.5C 121.391,256.89 122.391,256.557 123.5,256.5C 123.5,266.5 123.5,276.5 123.5,286.5C 128.833,286.5 134.167,286.5 139.5,286.5C 139.5,284.5 139.5,282.5 139.5,280.5C 141.833,280.5 144.167,280.5 146.5,280.5C 146.5,282.5 146.5,284.5 146.5,286.5C 147.833,286.5 149.167,286.5 150.5,286.5C 149.17,275.863 147.67,265.197 146,254.5C 143.916,251.967 141.916,251.967 140,254.5C 138.119,262.32 136.786,270.32 136,278.5C 133.281,279.444 130.448,279.777 127.5,279.5C 127.5,271.167 127.5,262.833 127.5,254.5C 128.5,254.167 129.167,253.5 129.5,252.5C 130.833,251.833 132.167,251.167 133.5,250.5C 139.021,248.55 144.354,246.217 149.5,243.5C 152.614,241.62 155.28,239.287 157.5,236.5C 159.72,234.282 162.387,232.948 165.5,232.5C 164.864,227.915 163.197,223.915 160.5,220.5C 275.162,218.502 390.162,217.835 505.5,218.5C 505.5,248.833 505.5,279.167 505.5,309.5 Z"/></g>
<g><path style="opacity:1" fill="#2db0a5" d="M 115.5,219.5 C 112.778,221.647 109.778,223.313 106.5,224.5C 102.903,225.791 99.9028,227.791 97.5,230.5C 96.609,231.11 95.609,231.443 94.5,231.5C 91.3413,231.574 89.0079,232.907 87.5,235.5C 86.8333,235.833 86.1667,236.167 85.5,236.5C 84.5386,234.735 84.2053,232.735 84.5,230.5C 85.4834,226.702 85.8168,222.702 85.5,218.5C 95.6806,218.173 105.681,218.506 115.5,219.5 Z"/></g>
<g><path style="opacity:1" fill="#b32c19" d="M 83.5,218.5 C 84.4834,222.298 84.8168,226.298 84.5,230.5C 83.5386,232.265 83.2053,234.265 83.5,236.5C 77.1819,239.411 71.0152,242.745 65,246.5C 64.5304,245.423 64.6971,244.423 65.5,243.5C 71.8541,235.489 77.8541,227.155 83.5,218.5 Z"/></g>
<g><path style="opacity:1" fill="#ff4f4e" d="M 128.5,224.5 C 129.209,223.596 130.209,223.263 131.5,223.5C 131.194,226.385 131.527,229.052 132.5,231.5C 132.5,232.5 132.5,233.5 132.5,234.5C 131.523,237.287 131.19,240.287 131.5,243.5C 129.901,243.768 128.568,243.434 127.5,242.5C 128.5,242.5 129.5,242.5 130.5,242.5C 131.12,236.074 130.453,230.074 128.5,224.5 Z"/></g>
<g><path style="opacity:1" fill="#dd5f52" d="M 106.5,224.5 C 104.046,227.281 101.046,229.281 97.5,230.5C 99.9028,227.791 102.903,225.791 106.5,224.5 Z"/></g>
<g><path style="opacity:1" fill="#a38d82" d="M 94.5,231.5 C 92.6644,233.588 90.3311,234.921 87.5,235.5C 89.0079,232.907 91.3413,231.574 94.5,231.5 Z"/></g>
<g><path style="opacity:1" fill="#fecac9" d="M 119.5,228.5 C 125.989,228.156 127.989,230.99 125.5,237C 120.749,239.725 117.749,238.391 116.5,233C 116.957,231.06 117.957,229.56 119.5,228.5 Z"/></g>
<g><path style="opacity:1" fill="#ff3a2d" d="M 120.5,230.5 C 122.701,230.858 124.035,232.192 124.5,234.5C 121.08,235.753 119.746,234.419 120.5,230.5 Z"/></g>
<g><path style="opacity:1" fill="#fecdcc" d="M 132.5,234.5 C 132.5,233.5 132.5,232.5 132.5,231.5C 132.414,230.504 132.748,229.671 133.5,229C 138.392,227.31 141.392,228.977 142.5,234C 141.171,237.994 138.504,239.327 134.5,238C 133.177,237.184 132.511,236.017 132.5,234.5 Z"/></g>
<g><path style="opacity:1" fill="#ff372c" d="M 135.5,230.5 C 138.423,231.163 139.09,232.83 137.5,235.5C 134.651,234.585 133.985,232.918 135.5,230.5 Z"/></g>
<g><path style="opacity:1" fill="#fec2c1" d="M 128.5,224.5 C 130.453,230.074 131.12,236.074 130.5,242.5C 129.5,242.5 128.5,242.5 127.5,242.5C 127.701,236.491 128.034,230.491 128.5,224.5 Z"/></g>
<g><path style="opacity:1" fill="#34b5aa" d="M 35.5,237.5 C 36.2389,237.369 36.9056,237.536 37.5,238C 34.551,244.338 31.8843,250.838 29.5,257.5C 25.5,252.5 21.5,247.5 17.5,242.5C 23.4666,240.51 29.4666,238.843 35.5,237.5 Z"/></g>
<g><path style="opacity:1" fill="#ffcac8" d="M 97.5,240.5 C 102.5,239.5 104.5,241.5 103.5,246.5C 105.124,246.36 106.29,247.027 107,248.5C 108.172,255.777 105.005,259.11 97.5,258.5C 97.5,257.5 97.5,256.5 97.5,255.5C 100.641,256.092 102.974,255.092 104.5,252.5C 104.392,251.558 104.059,250.725 103.5,250C 101.413,250.218 99.4132,250.051 97.5,249.5C 99.5589,248.049 100.559,246.049 100.5,243.5C 99.0222,243.238 97.6888,243.571 96.5,244.5C 94.3913,248.225 93.2246,248.225 93,244.5C 94.3968,242.93 95.8968,241.596 97.5,240.5 Z"/></g>
<g><path style="opacity:1" fill="#ffc7c5" d="M 109.5,233.5 C 114.242,234.227 117.575,236.893 119.5,241.5C 121.021,248.81 118.021,251.643 110.5,250C 104.781,244.499 104.448,238.999 109.5,233.5 Z"/></g>
<g><path style="opacity:1" fill="#ff100b" d="M 109.5,237.5 C 112.642,237.799 114.809,239.466 116,242.5C 116.494,244.134 116.66,245.801 116.5,247.5C 110.769,246.739 108.435,243.406 109.5,237.5 Z"/></g>
<g><path style="opacity:1" fill="#7c9f95" d="M 157.5,236.5 C 155.28,239.287 152.614,241.62 149.5,243.5C 144.354,246.217 139.021,248.55 133.5,250.5C 141.247,245.563 149.247,240.897 157.5,236.5 Z"/></g>
<g><path style="opacity:1" fill="#d67c79" d="M 84.5,230.5 C 84.2053,232.735 84.5386,234.735 85.5,236.5C 78.3649,241.238 71.0316,245.738 63.5,250C 61.9371,250.759 60.9371,251.926 60.5,253.5C 59.9033,253.265 59.5699,252.765 59.5,252C 60.9277,248.601 62.9277,245.767 65.5,243.5C 64.6971,244.423 64.5304,245.423 65,246.5C 71.0152,242.745 77.1819,239.411 83.5,236.5C 83.2053,234.265 83.5386,232.265 84.5,230.5 Z"/></g>
<g><path style="opacity:1" fill="#ed807b" d="M 129.5,252.5 C 129.167,253.5 128.5,254.167 127.5,254.5C 126.609,255.11 125.609,255.443 124.5,255.5C 125.659,253.75 127.326,252.75 129.5,252.5 Z"/></g>
<g><path style="opacity:1" fill="#eaf3f2" d="M 156.5,252.5 C 164.973,251.872 167.973,255.538 165.5,263.5C 163.558,259.347 160.891,258.68 157.5,261.5C 156.337,266.802 156.171,272.136 157,277.5C 160.252,281.593 163.086,281.259 165.5,276.5C 166.833,279.5 166.833,282.5 165.5,285.5C 162.167,288.167 158.833,288.167 155.5,285.5C 153.601,283.169 152.434,280.502 152,277.5C 151.333,272.167 151.333,266.833 152,261.5C 153.316,258.367 154.816,255.367 156.5,252.5 Z"/></g>
<g><path style="opacity:1" fill="#eaf3f2" d="M 286.5,252.5 C 294.071,252.263 296.904,255.93 295,263.5C 294.028,265.305 292.861,266.972 291.5,268.5C 293.395,273.725 294.395,273.391 294.5,267.5C 295.833,267.5 297.167,267.5 298.5,267.5C 298.759,271.24 298.426,274.906 297.5,278.5C 298.305,280.915 299.305,283.249 300.5,285.5C 298.365,286.645 296.199,286.645 294,285.5C 285.781,289.181 282.281,286.348 283.5,277C 283.307,273.757 283.973,270.757 285.5,268C 282.602,262.578 282.935,257.412 286.5,252.5 Z"/></g>
<g><path style="opacity:1" fill="#e9f3f2" d="M 413.5,252.5 C 417.321,252.103 420.321,253.436 422.5,256.5C 425.859,264.626 426.359,272.96 424,281.5C 415.707,290.563 410.374,288.896 408,276.5C 406.028,267.471 407.862,259.471 413.5,252.5 Z"/></g>
<g><path style="opacity:1" fill="#eff5f5" d="M 123.5,256.5 C 123.5,255.833 123.833,255.5 124.5,255.5C 125.609,255.443 126.609,255.11 127.5,254.5C 127.5,262.833 127.5,271.167 127.5,279.5C 130.448,279.777 133.281,279.444 136,278.5C 136.786,270.32 138.119,262.32 140,254.5C 141.916,251.967 143.916,251.967 146,254.5C 147.67,265.197 149.17,275.863 150.5,286.5C 149.167,286.5 147.833,286.5 146.5,286.5C 146.5,284.5 146.5,282.5 146.5,280.5C 144.167,280.5 141.833,280.5 139.5,280.5C 139.5,282.5 139.5,284.5 139.5,286.5C 134.167,286.5 128.833,286.5 123.5,286.5C 123.5,276.5 123.5,266.5 123.5,256.5 Z"/></g>
<g><path style="opacity:1" fill="#e9f3f2" d="M 178.5,253.5 C 179.833,253.5 181.167,253.5 182.5,253.5C 182.5,254.5 182.5,255.5 182.5,256.5C 180.514,260.494 178.847,264.661 177.5,269C 178.685,273.395 180.352,277.561 182.5,281.5C 182.5,283.167 182.5,284.833 182.5,286.5C 180.708,286.634 179.042,286.301 177.5,285.5C 174.292,271.957 172.792,272.29 173,286.5C 171.644,287.38 170.144,287.714 168.5,287.5C 168.5,275.833 168.5,264.167 168.5,252.5C 170.167,252.5 171.833,252.5 173.5,252.5C 173.335,256.182 173.501,259.848 174,263.5C 175.509,260.054 177.009,256.72 178.5,253.5 Z"/></g>
<g><path style="opacity:1" fill="#e6f1f0" d="M 198.5,286.5 C 198.5,275.5 198.5,264.5 198.5,253.5C 201.5,253.5 204.5,253.5 207.5,253.5C 208.848,254.186 210.015,255.186 211,256.5C 211.667,260.833 211.667,265.167 211,269.5C 210.355,270.646 209.522,271.646 208.5,272.5C 210.355,276.058 212.022,279.725 213.5,283.5C 214.167,282.5 214.833,281.5 215.5,280.5C 215.833,277 216.167,273.5 216.5,270C 216.051,264.118 215.385,258.285 214.5,252.5C 217.777,252.216 220.943,252.549 224,253.5C 223.553,258.944 223.053,264.444 222.5,270C 223.053,275.556 223.553,281.056 224,286.5C 218.928,287.471 213.762,287.805 208.5,287.5C 208.096,282.788 206.596,278.455 204,274.5C 203.501,278.486 203.334,282.486 203.5,286.5C 201.833,286.5 200.167,286.5 198.5,286.5 Z"/></g>
<g><path style="opacity:1" fill="#ebf4f3" d="M 226.5,252.5 C 233.663,251.331 238.829,253.998 242,260.5C 243.258,268.525 242.258,276.191 239,283.5C 235.692,287.352 231.692,288.352 227,286.5C 226.5,275.172 226.333,263.838 226.5,252.5 Z"/></g>
<g><path style="opacity:1" fill="#eaf3f2" d="M 248.5,252.5 C 250.467,252.261 252.301,252.594 254,253.5C 255.231,264.954 257.064,276.287 259.5,287.5C 257.856,287.714 256.356,287.38 255,286.5C 254.505,284.527 254.338,282.527 254.5,280.5C 249.5,279.5 247.5,281.5 248.5,286.5C 246.833,286.5 245.167,286.5 243.5,286.5C 244.194,274.93 245.861,263.597 248.5,252.5 Z"/></g>
<g><path style="opacity:1" fill="#e7f2f1" d="M 259.5,253.5 C 261.288,253.215 262.955,253.548 264.5,254.5C 265.269,257.51 266.103,260.51 267,263.5C 268.122,260.116 269.289,256.782 270.5,253.5C 271.833,253.5 273.167,253.5 274.5,253.5C 273.321,259.545 271.821,265.545 270,271.5C 269.501,276.823 269.334,282.156 269.5,287.5C 267.833,287.5 266.167,287.5 264.5,287.5C 264.666,281.824 264.499,276.157 264,270.5C 261.425,265.124 259.925,259.458 259.5,253.5 Z"/></g>
<g><path style="opacity:1" fill="#e4f1ef" d="M 338.5,252.5 C 337.833,255.833 337.167,259.167 336.5,262.5C 335.239,265.258 334.406,268.258 334,271.5C 333.667,276.5 333.333,281.5 333,286.5C 331.644,287.38 330.144,287.714 328.5,287.5C 328.666,282.489 328.499,277.489 328,272.5C 325.878,267.022 324.212,261.355 323,255.5C 322.814,257.9 322.314,260.234 321.5,262.5C 318.708,258.568 315.875,258.568 313,262.5C 312.171,267.533 312.338,272.533 313.5,277.5C 316.019,281.352 318.686,281.352 321.5,277.5C 323.967,285.086 321.3,288.253 313.5,287C 310.372,284.654 308.539,281.487 308,277.5C 306.827,269.91 307.66,262.577 310.5,255.5C 311.5,254.667 312.5,253.833 313.5,253C 317.385,253.128 321.218,252.961 325,252.5C 326.107,252.585 327.107,252.919 328,253.5C 329.251,257.082 330.251,260.749 331,264.5C 331.667,261.167 332.333,257.833 333,254.5C 334.444,252.845 336.278,252.178 338.5,252.5 Z"/></g>
<g><path style="opacity:1" fill="#eaf3f2" d="M 349.5,253.5 C 353.965,257.709 354.631,262.542 351.5,268C 354.42,272.349 355.253,277.183 354,282.5C 350.499,287.382 345.999,288.716 340.5,286.5C 340.5,275.5 340.5,264.5 340.5,253.5C 343.5,253.5 346.5,253.5 349.5,253.5 Z"/></g>
<g><path style="opacity:1" fill="#c1e0dc" d="M 367.5,259.5 C 367.5,257.833 367.5,256.167 367.5,254.5C 364.167,254.5 360.833,254.5 357.5,254.5C 357.5,264.833 357.5,275.167 357.5,285.5C 360.833,285.5 364.167,285.5 367.5,285.5C 367.5,283.833 367.5,282.167 367.5,280.5C 365.167,280.5 362.833,280.5 360.5,280.5C 360.5,277.5 360.5,274.5 360.5,271.5C 362.833,271.5 365.167,271.5 367.5,271.5C 365.735,272.461 363.735,272.795 361.5,272.5C 361.5,274.833 361.5,277.167 361.5,279.5C 363.833,279.5 366.167,279.5 368.5,279.5C 368.768,282.119 368.435,284.619 367.5,287C 363.848,287.499 360.182,287.665 356.5,287.5C 356.5,275.833 356.5,264.167 356.5,252.5C 360.5,252.5 364.5,252.5 368.5,252.5C 368.802,255.059 368.468,257.393 367.5,259.5 Z"/></g>
<g><path style="opacity:1" fill="#f5f8f8" d="M 367.5,259.5 C 365.735,260.461 363.735,260.795 361.5,260.5C 361.5,261.833 361.5,263.167 361.5,264.5C 363.5,264.5 365.5,264.5 367.5,264.5C 367.5,266.833 367.5,269.167 367.5,271.5C 365.167,271.5 362.833,271.5 360.5,271.5C 360.5,274.5 360.5,277.5 360.5,280.5C 362.833,280.5 365.167,280.5 367.5,280.5C 367.5,282.167 367.5,283.833 367.5,285.5C 364.167,285.5 360.833,285.5 357.5,285.5C 357.5,275.167 357.5,264.833 357.5,254.5C 360.833,254.5 364.167,254.5 367.5,254.5C 367.5,256.167 367.5,257.833 367.5,259.5 Z"/></g>
<g><path style="opacity:1" fill="#badeda" d="M 379.5,253.5 C 376.833,253.5 374.167,253.5 371.5,253.5C 371.5,264.5 371.5,275.5 371.5,286.5C 372.5,286.5 373.5,286.5 374.5,286.5C 374.5,282.167 374.5,277.833 374.5,273.5C 376.179,273.285 377.179,273.952 377.5,275.5C 376.883,275.389 376.383,275.056 376,274.5C 375.501,278.821 375.334,283.154 375.5,287.5C 373.833,287.5 372.167,287.5 370.5,287.5C 370.5,275.833 370.5,264.167 370.5,252.5C 373.713,252.19 376.713,252.523 379.5,253.5 Z"/></g>
<g><path style="opacity:1" fill="#f1f6f5" d="M 379.5,253.5 C 382.675,254.182 384.175,256.182 384,259.5C 384.604,264.088 383.771,268.422 381.5,272.5C 383.163,277.163 384.496,281.829 385.5,286.5C 383.833,286.5 382.167,286.5 380.5,286.5C 379.697,282.761 378.697,279.095 377.5,275.5C 377.179,273.952 376.179,273.285 374.5,273.5C 374.5,277.833 374.5,282.167 374.5,286.5C 373.5,286.5 372.5,286.5 371.5,286.5C 371.5,275.5 371.5,264.5 371.5,253.5C 374.167,253.5 376.833,253.5 379.5,253.5 Z"/></g>
<g><path style="opacity:1" fill="#ecf4f3" d="M 436.5,266.5 C 436.215,268.288 436.548,269.955 437.5,271.5C 438.496,265.537 438.829,259.537 438.5,253.5C 439.5,253.5 440.5,253.5 441.5,253.5C 441.5,264.5 441.5,275.5 441.5,286.5C 440.167,286.5 438.833,286.5 437.5,286.5C 435.738,280.263 433.904,273.93 432,267.5C 431.5,274.158 431.334,280.825 431.5,287.5C 429.856,287.714 428.356,287.38 427,286.5C 426.5,275.172 426.333,263.838 426.5,252.5C 428.792,252.244 430.959,252.577 433,253.5C 434.108,257.884 435.275,262.218 436.5,266.5 Z"/></g>
<g><path style="opacity:1" fill="#e6f1f0" d="M 444.5,252.5 C 449.608,251.965 454.108,253.298 458,256.5C 461.279,265.509 461.279,274.509 458,283.5C 454.215,286.964 449.715,288.298 444.5,287.5C 444.5,275.833 444.5,264.167 444.5,252.5 Z"/></g>
<g><path style="opacity:1" fill="#ecf4f3" d="M 467.5,253.5 C 469.167,253.5 470.833,253.5 472.5,253.5C 474.557,264.405 475.891,275.405 476.5,286.5C 475.5,286.5 474.5,286.5 473.5,286.5C 474.265,281.094 471.931,279.094 466.5,280.5C 467.152,284.56 465.485,286.56 461.5,286.5C 462.545,275.221 464.545,264.221 467.5,253.5 Z"/></g>
<g><path style="opacity:1" fill="#e6f1f0" d="M 477.5,252.5 C 479.167,252.5 480.833,252.5 482.5,252.5C 483.092,255.127 483.425,257.794 483.5,260.5C 484.822,260.67 485.989,260.337 487,259.5C 487.977,257.26 488.477,254.927 488.5,252.5C 490.167,252.5 491.833,252.5 493.5,252.5C 493.662,254.527 493.495,256.527 493,258.5C 488.647,267.627 486.814,277.294 487.5,287.5C 486.167,287.5 484.833,287.5 483.5,287.5C 483.829,281.794 483.495,276.128 482.5,270.5C 480.514,264.55 478.847,258.55 477.5,252.5 Z"/></g>
<g><path style="opacity:1" fill="#c8e4e1" d="M 393.5,255.5 C 392.292,254.766 390.959,254.433 389.5,254.5C 389.168,264.855 389.501,275.188 390.5,285.5C 391.167,278.833 391.833,272.167 392.5,265.5C 393.452,267.045 393.785,268.712 393.5,270.5C 392.512,275.64 392.179,280.974 392.5,286.5C 390.833,286.5 389.167,286.5 387.5,286.5C 387.5,275.167 387.5,263.833 387.5,252.5C 389.5,252.5 391.5,252.5 393.5,252.5C 393.5,253.5 393.5,254.5 393.5,255.5 Z"/></g>
<g><path style="opacity:1" fill="#acd7d2" d="M 437.5,286.5 C 438.833,286.5 440.167,286.5 441.5,286.5C 441.5,275.5 441.5,264.5 441.5,253.5C 440.5,253.5 439.5,253.5 438.5,253.5C 438.829,259.537 438.496,265.537 437.5,271.5C 436.548,269.955 436.215,268.288 436.5,266.5C 437.486,262.03 437.819,257.363 437.5,252.5C 439.167,252.5 440.833,252.5 442.5,252.5C 442.5,264.167 442.5,275.833 442.5,287.5C 440.585,287.784 438.919,287.451 437.5,286.5 Z"/></g>
<g><path style="opacity:1" fill="#7dc4bc" d="M 178.5,253.5 C 188.167,252.167 197.833,252.167 207.5,253.5C 204.5,253.5 201.5,253.5 198.5,253.5C 198.5,264.5 198.5,275.5 198.5,286.5C 197.833,277.5 197.167,268.5 196.5,259.5C 196.5,257.5 196.5,255.5 196.5,253.5C 192.5,253.5 188.5,253.5 184.5,253.5C 184.5,264.5 184.5,275.5 184.5,286.5C 185.833,286.5 187.167,286.5 188.5,286.5C 188.5,281.833 188.5,277.167 188.5,272.5C 190.833,272.5 193.167,272.5 195.5,272.5C 193.735,273.461 191.735,273.795 189.5,273.5C 189.5,278.167 189.5,282.833 189.5,287.5C 187.533,287.261 185.699,287.594 184,288.5C 181.37,288.141 179.203,287.141 177.5,285.5C 179.042,286.301 180.708,286.634 182.5,286.5C 182.5,284.833 182.5,283.167 182.5,281.5C 183.833,273.167 183.833,264.833 182.5,256.5C 182.5,255.5 182.5,254.5 182.5,253.5C 181.167,253.5 179.833,253.5 178.5,253.5 Z"/></g>
<g><path style="opacity:1" fill="#f0f6f5" d="M 196.5,259.5 C 194.393,260.468 192.059,260.802 189.5,260.5C 189.5,262.167 189.5,263.833 189.5,265.5C 191.5,265.5 193.5,265.5 195.5,265.5C 195.5,267.833 195.5,270.167 195.5,272.5C 193.167,272.5 190.833,272.5 188.5,272.5C 188.5,277.167 188.5,281.833 188.5,286.5C 187.167,286.5 185.833,286.5 184.5,286.5C 184.5,275.5 184.5,264.5 184.5,253.5C 188.5,253.5 192.5,253.5 196.5,253.5C 196.5,255.5 196.5,257.5 196.5,259.5 Z"/></g>
<g><path style="opacity:1" fill="#77c5be" d="M 338.5,252.5 C 342.371,252.185 346.038,252.518 349.5,253.5C 346.5,253.5 343.5,253.5 340.5,253.5C 340.5,264.5 340.5,275.5 340.5,286.5C 339.671,278.677 339.171,270.677 339,262.5C 338.667,261.5 338.333,260.5 338,259.5C 337.768,260.737 337.268,261.737 336.5,262.5C 337.167,259.167 337.833,255.833 338.5,252.5 Z"/></g>
<g><path style="opacity:1" fill="#f5f2f2" d="M 120.5,257.5 C 118.912,262.503 118.745,267.503 120,272.5C 122.921,283.699 118.755,288.365 107.5,286.5C 108.126,279.416 107.459,272.75 105.5,266.5C 106.911,264.461 108.911,263.461 111.5,263.5C 111.5,264.5 111.5,265.5 111.5,266.5C 115.273,266.343 116.273,264.676 114.5,261.5C 116.147,259.674 118.147,258.34 120.5,257.5 Z"/></g>
<g><path style="opacity:1" fill="#45b3a8" d="M 375.5,259.5 C 376.822,259.33 377.989,259.663 379,260.5C 379.497,262.81 379.663,265.143 379.5,267.5C 378.167,267.5 376.833,267.5 375.5,267.5C 375.5,264.833 375.5,262.167 375.5,259.5 Z"/></g>
<g><path style="opacity:1" fill="#3bb3a8" d="M 203.5,259.5 C 206.488,259.155 207.821,260.488 207.5,263.5C 207.821,266.512 206.488,267.845 203.5,267.5C 203.5,264.833 203.5,262.167 203.5,259.5 Z"/></g>
<g><path style="opacity:1" fill="#32b2a8" d="M 345.5,260.5 C 346.5,260.5 347.5,260.5 348.5,260.5C 348.5,262.167 348.5,263.833 348.5,265.5C 347.5,265.5 346.5,265.5 345.5,265.5C 345.5,263.833 345.5,262.167 345.5,260.5 Z"/></g>
<g><path style="opacity:1" fill="#2db2a7" d="M 450.5,260.5 C 452.39,260.297 453.89,260.963 455,262.5C 455.829,267.533 455.662,272.533 454.5,277.5C 453.264,278.246 451.93,278.579 450.5,278.5C 450.5,272.5 450.5,266.5 450.5,260.5 Z"/></g>
<g><path style="opacity:1" fill="#2bb2a7" d="M 182.5,256.5 C 183.833,264.833 183.833,273.167 182.5,281.5C 180.352,277.561 178.685,273.395 177.5,269C 178.847,264.661 180.514,260.494 182.5,256.5 Z"/></g>
<g><path style="opacity:1" fill="#42b6ab" d="M 414.5,259.5 C 416.451,259.227 417.951,259.893 419,261.5C 419.83,267.196 419.663,272.863 418.5,278.5C 416.833,281.167 415.167,281.167 413.5,278.5C 412.337,272.863 412.17,267.196 413,261.5C 413.717,260.956 414.217,260.289 414.5,259.5 Z"/></g>
<g><path style="opacity:1" fill="#3ab5ab" d="M 555.5,261.5 C 556.376,261.369 557.043,261.702 557.5,262.5C 556.496,268.531 554.496,274.198 551.5,279.5C 547.216,275.265 544.216,270.265 542.5,264.5C 547.12,264.26 551.453,263.26 555.5,261.5 Z"/></g>
<g><path style="opacity:1" fill="#68b8af" d="M 114.5,261.5 C 116.273,264.676 115.273,266.343 111.5,266.5C 111.5,265.5 111.5,264.5 111.5,263.5C 112.29,262.599 113.29,261.932 114.5,261.5 Z"/></g>
<g><path style="opacity:1" fill="#42b5ab" d="M 231.5,259.5 C 234.101,260.28 236.101,261.946 237.5,264.5C 238.91,269.453 238.243,274.119 235.5,278.5C 234.311,279.429 232.978,279.762 231.5,279.5C 231.5,272.833 231.5,266.167 231.5,259.5 Z"/></g>
<g><path style="opacity:1" fill="#ecf5f4" d="M 400.5,253.5 C 402.167,253.5 403.833,253.5 405.5,253.5C 405.5,264.833 405.5,276.167 405.5,287.5C 404.167,287.5 402.833,287.5 401.5,287.5C 401.666,280.825 401.5,274.158 401,267.5C 399.768,270.3 399.101,273.3 399,276.5C 398.047,278.592 396.714,278.925 395,277.5C 394.814,274.964 394.314,272.631 393.5,270.5C 393.785,268.712 393.452,267.045 392.5,265.5C 391.833,272.167 391.167,278.833 390.5,285.5C 389.501,275.188 389.168,264.855 389.5,254.5C 390.959,254.433 392.292,254.766 393.5,255.5C 394.473,259.16 395.639,262.827 397,266.5C 398.591,262.302 399.757,257.969 400.5,253.5 Z"/></g>
<g><path style="opacity:1" fill="#90cbc4" d="M 468.5,263.5 C 470.389,266.692 471.389,270.358 471.5,274.5C 470.167,274.5 468.833,274.5 467.5,274.5C 468.114,270.865 468.448,267.198 468.5,263.5 Z"/></g>
<g><path style="opacity:1" fill="#ffa7a4" d="M 69.5,268.5 C 72.4213,271.242 74.4213,274.575 75.5,278.5C 72.4977,275.839 70.4977,272.505 69.5,268.5 Z"/></g>
<g><path style="opacity:1" fill="#abd8d2" d="M 141.5,263.5 C 143.358,266.827 144.691,270.494 145.5,274.5C 143.833,274.5 142.167,274.5 140.5,274.5C 140.724,270.821 141.058,267.154 141.5,263.5 Z"/></g>
<g><path style="opacity:1" fill="#a2d3cd" d="M 250.5,264.5 C 251.586,264.62 252.253,265.287 252.5,266.5C 253.269,269.115 253.603,271.781 253.5,274.5C 252.022,274.762 250.689,274.429 249.5,273.5C 250.407,270.579 250.74,267.579 250.5,264.5 Z"/></g>
<g><path style="opacity:1" fill="#28b0a5" d="M 345.5,273.5 C 346.833,273.5 348.167,273.5 349.5,273.5C 349.682,275.591 349.348,277.591 348.5,279.5C 347.675,280.386 346.675,280.719 345.5,280.5C 345.5,278.167 345.5,275.833 345.5,273.5 Z"/></g>
<g><path style="opacity:1" fill="#3fb5aa" d="M 111.5,272.5 C 116.159,272.811 117.492,275.144 115.5,279.5C 114.311,280.429 112.978,280.762 111.5,280.5C 111.5,277.833 111.5,275.167 111.5,272.5 Z"/></g>
<g><path style="opacity:1" fill="#6fa499" d="M 104.5,267.5 C 100.568,270.911 96.401,274.245 92,277.5C 91.586,277.043 91.086,276.709 90.5,276.5C 88.9246,277.456 87.258,278.123 85.5,278.5C 90.012,275.163 94.6786,271.997 99.5,269C 101.154,268.392 102.821,267.892 104.5,267.5 Z"/></g>
<g><path style="opacity:1" fill="#41b4a9" d="M 287.5,272.5 C 288.984,274.503 290.317,276.67 291.5,279C 290.955,282.013 289.789,282.179 288,279.5C 287.503,277.19 287.337,274.857 287.5,272.5 Z"/></g>
<g><path style="opacity:1" fill="#5dbdb4" d="M 400.5,253.5 C 402.265,252.539 404.265,252.205 406.5,252.5C 406.5,264.5 406.5,276.5 406.5,288.5C 400.471,289.835 397.804,287.502 398.5,281.5C 397.178,281.67 396.011,281.337 395,280.5C 394.998,283.051 394.164,285.051 392.5,286.5C 392.179,280.974 392.512,275.64 393.5,270.5C 394.314,272.631 394.814,274.964 395,277.5C 396.714,278.925 398.047,278.592 399,276.5C 399.101,273.3 399.768,270.3 401,267.5C 401.5,274.158 401.666,280.825 401.5,287.5C 402.833,287.5 404.167,287.5 405.5,287.5C 405.5,276.167 405.5,264.833 405.5,253.5C 403.833,253.5 402.167,253.5 400.5,253.5 Z"/></g>
<g><path style="opacity:1" fill="#ffa9a7" d="M 75.5,279.5 C 76.4584,279.953 77.2917,280.619 78,281.5C 79.5843,280.139 81.4176,279.472 83.5,279.5C 83.5,279.833 83.5,280.167 83.5,280.5C 81.7334,281.256 79.9001,281.923 78,282.5C 76.2509,282.252 75.4176,281.252 75.5,279.5 Z"/></g>
<g><path style="opacity:1" fill="#ffb8b8" d="M 79.5,310.5 C 59.6596,310.17 39.9929,310.503 20.5,311.5C 19.9569,311.44 19.6236,311.107 19.5,310.5C 39.6627,309.172 59.6627,309.172 79.5,310.5 Z"/></g>
<g><path style="opacity:1" fill="#fcc3c3" d="M 503.5,310.5 C 503.842,309.662 504.508,309.328 505.5,309.5C 505.833,309.5 506.167,309.5 506.5,309.5C 533.841,309.167 561.175,309.5 588.5,310.5C 587.995,311.919 586.995,312.585 585.5,312.5C 585.611,311.883 585.944,311.383 586.5,311C 559.502,310.5 532.502,310.333 505.5,310.5C 504.833,310.5 504.167,310.5 503.5,310.5 Z"/></g>
<g><path style="opacity:1" fill="#fe4645" d="M 20.5,311.5 C 39.9929,310.503 59.6596,310.17 79.5,310.5C 79.5,311.167 79.5,311.833 79.5,312.5C 79.1667,313.833 78.8333,313.833 78.5,312.5C 59.8333,311.167 41.1667,311.167 22.5,312.5C 21.8333,312.167 21.1667,311.833 20.5,311.5 Z"/></g>
<g><path style="opacity:1" fill="#fe4d4d" d="M 505.5,310.5 C 532.502,310.333 559.502,310.5 586.5,311C 585.944,311.383 585.611,311.883 585.5,312.5C 585.167,312.5 584.833,312.5 584.5,312.5C 559.005,311.502 533.339,311.169 507.5,311.5C 506.508,311.672 505.842,311.338 505.5,310.5 Z"/></g>
<g><path style="opacity:1" fill="#fd0c07" d="M 22.5,312.5 C 41.1667,311.167 59.8333,311.167 78.5,312.5C 77.1032,314.379 75.4365,316.046 73.5,317.5C 76.0865,318.48 78.7531,318.813 81.5,318.5C 82.1667,318.5 82.8333,318.5 83.5,318.5C 223.5,318.5 363.5,318.5 503.5,318.5C 508.544,318.827 513.544,318.494 518.5,317.5C 515.675,315.651 512.508,314.317 509,313.5C 507.97,313.164 507.47,312.497 507.5,311.5C 533.339,311.169 559.005,311.502 584.5,312.5C 583.421,314.543 581.754,315.876 579.5,316.5C 577.847,316.66 576.514,317.326 575.5,318.5C 570.54,320.647 565.873,323.314 561.5,326.5C 559.326,326.75 557.659,327.75 556.5,329.5C 554.534,330.255 554.2,331.421 555.5,333C 566.072,338.786 576.739,344.286 587.5,349.5C 588.598,350.397 588.598,351.23 587.5,352C 565.503,352.5 543.503,352.667 521.5,352.5C 520.509,358.979 520.176,365.646 520.5,372.5C 370.5,372.5 220.5,372.5 70.5,372.5C 70.5,365.167 70.5,357.833 70.5,350.5C 53.1667,349.833 35.8333,349.167 18.5,348.5C 27.6086,342.435 36.6086,336.101 45.5,329.5C 37.909,323.558 30.2423,317.891 22.5,312.5 Z"/></g>
<g><path style="opacity:1" fill="#b92411" d="M 503.5,310.5 C 504.167,310.5 504.833,310.5 505.5,310.5C 505.842,311.338 506.508,311.672 507.5,311.5C 507.47,312.497 507.97,313.164 509,313.5C 512.508,314.317 515.675,315.651 518.5,317.5C 513.544,318.494 508.544,318.827 503.5,318.5C 503.5,315.833 503.5,313.167 503.5,310.5 Z"/></g>
<g><path style="opacity:1" fill="#b81706" d="M 78.5,312.5 C 78.8333,313.833 79.1667,313.833 79.5,312.5C 81.3079,313.918 81.9746,315.918 81.5,318.5C 78.7531,318.813 76.0865,318.48 73.5,317.5C 75.4365,316.046 77.1032,314.379 78.5,312.5 Z"/></g>
<g><path style="opacity:1" fill="#6a9b92" d="M 503.5,310.5 C 503.5,313.167 503.5,315.833 503.5,318.5C 363.5,318.5 223.5,318.5 83.5,318.5C 83.5,318.167 83.5,317.833 83.5,317.5C 223.167,317.5 362.833,317.5 502.5,317.5C 502.198,314.941 502.532,312.607 503.5,310.5 Z"/></g>
<g><path style="opacity:1" fill="#ff8887" d="M 579.5,316.5 C 578.713,318.104 577.38,318.771 575.5,318.5C 576.514,317.326 577.847,316.66 579.5,316.5 Z"/></g>
<g><path style="opacity:1" fill="#ffa09f" d="M 195.5,326.5 C 196.806,325.533 197.473,324.199 197.5,322.5C 194.167,322.5 190.833,322.5 187.5,322.5C 187.5,323.833 187.5,325.167 187.5,326.5C 186.549,325.081 186.216,323.415 186.5,321.5C 190.5,321.5 194.5,321.5 198.5,321.5C 198.5,323.167 198.5,324.833 198.5,326.5C 197.5,326.5 196.5,326.5 195.5,326.5 Z"/></g>
<g><path style="opacity:1" fill="#ff9b9a" d="M 276.5,322.5 C 279.962,321.518 283.629,321.185 287.5,321.5C 287.784,323.415 287.451,325.081 286.5,326.5C 286.5,325.167 286.5,323.833 286.5,322.5C 283.167,322.5 279.833,322.5 276.5,322.5 Z"/></g>
<g><path style="opacity:1" fill="#ff9a98" d="M 400.5,322.5 C 401.622,321.844 402.955,321.511 404.5,321.5C 406.883,321.361 408.883,322.028 410.5,323.5C 407.193,322.949 403.86,322.616 400.5,322.5 Z"/></g>
<g><path style="opacity:1" fill="#ff9796" d="M 207.5,322.5 C 205.5,322.5 203.5,322.5 201.5,322.5C 201.5,328.833 201.5,335.167 201.5,341.5C 202.833,341.5 204.167,341.5 205.5,341.5C 205.176,337.445 205.509,333.445 206.5,329.5C 207.107,329.624 207.44,329.957 207.5,330.5C 206.517,334.298 206.183,338.298 206.5,342.5C 204.5,342.5 202.5,342.5 200.5,342.5C 200.5,335.5 200.5,328.5 200.5,321.5C 203.059,321.198 205.393,321.532 207.5,322.5 Z"/></g>
<g><path style="opacity:1" fill="#ff9594" d="M 218.5,322.5 C 218.167,322.5 217.833,322.5 217.5,322.5C 216.167,322.5 214.833,322.5 213.5,322.5C 213.817,325.572 213.484,328.572 212.5,331.5C 211.702,331.043 211.369,330.376 211.5,329.5C 212.473,327.052 212.806,324.385 212.5,321.5C 214.735,321.205 216.735,321.539 218.5,322.5 Z"/></g>
<g><path style="opacity:1" fill="#fff4f4" d="M 207.5,322.5 C 209.572,324.35 210.905,326.683 211.5,329.5C 211.369,330.376 211.702,331.043 212.5,331.5C 213.484,328.572 213.817,325.572 213.5,322.5C 214.833,322.5 216.167,322.5 217.5,322.5C 217.5,328.5 217.5,334.5 217.5,340.5C 215.833,340.5 214.167,340.5 212.5,340.5C 210.308,337.45 208.642,334.117 207.5,330.5C 207.44,329.957 207.107,329.624 206.5,329.5C 205.509,333.445 205.176,337.445 205.5,341.5C 204.167,341.5 202.833,341.5 201.5,341.5C 201.5,335.167 201.5,328.833 201.5,322.5C 203.5,322.5 205.5,322.5 207.5,322.5 Z"/></g>
<g><path style="opacity:1" fill="#ffbab9" d="M 300.5,322.5 C 297.167,322.5 293.833,322.5 290.5,322.5C 290.5,328.833 290.5,335.167 290.5,341.5C 291.833,341.5 293.167,341.5 294.5,341.5C 293.081,342.451 291.415,342.784 289.5,342.5C 289.5,335.5 289.5,328.5 289.5,321.5C 293.371,321.185 297.038,321.518 300.5,322.5 Z"/></g>
<g><path style="opacity:1" fill="#ff8e8d" d="M 365.5,322.5 C 363.5,322.5 361.5,322.5 359.5,322.5C 359.5,328.833 359.5,335.167 359.5,341.5C 360.833,341.5 362.167,341.5 363.5,341.5C 362.081,342.451 360.415,342.784 358.5,342.5C 358.5,335.5 358.5,328.5 358.5,321.5C 361.059,321.198 363.393,321.532 365.5,322.5 Z"/></g>
<g><path style="opacity:1" fill="#fff2f2" d="M 365.5,322.5 C 366.486,324.426 367.486,326.426 368.5,328.5C 369.082,329.931 369.915,331.264 371,332.5C 371.498,329.183 371.665,325.85 371.5,322.5C 372.833,322.5 374.167,322.5 375.5,322.5C 375.5,328.833 375.5,335.167 375.5,341.5C 372.642,341.972 370.642,340.972 369.5,338.5C 367.162,335.904 365.328,332.904 364,329.5C 363.501,333.486 363.334,337.486 363.5,341.5C 362.167,341.5 360.833,341.5 359.5,341.5C 359.5,335.167 359.5,328.833 359.5,322.5C 361.5,322.5 363.5,322.5 365.5,322.5 Z"/></g>
<g><path style="opacity:1" fill="#ff8685" d="M 369.5,338.5 C 370.642,340.972 372.642,341.972 375.5,341.5C 375.5,335.167 375.5,328.833 375.5,322.5C 374.167,322.5 372.833,322.5 371.5,322.5C 371.665,325.85 371.498,329.183 371,332.5C 369.915,331.264 369.082,329.931 368.5,328.5C 369.117,328.611 369.617,328.944 370,329.5C 370.497,326.854 370.664,324.187 370.5,321.5C 372.5,321.5 374.5,321.5 376.5,321.5C 376.5,328.5 376.5,335.5 376.5,342.5C 374.473,342.662 372.473,342.495 370.5,342C 369.663,340.989 369.33,339.822 369.5,338.5 Z"/></g>
<g><path style="opacity:1" fill="#fff3f3" d="M 195.5,326.5 C 195.5,330.167 195.5,333.833 195.5,337.5C 196.806,338.467 197.473,339.801 197.5,341.5C 194.167,341.5 190.833,341.5 187.5,341.5C 187.5,340.5 187.5,339.5 187.5,338.5C 188.5,338.5 189.5,338.5 190.5,338.5C 190.817,334.298 190.483,330.298 189.5,326.5C 188.833,326.5 188.167,326.5 187.5,326.5C 187.5,325.167 187.5,323.833 187.5,322.5C 190.833,322.5 194.167,322.5 197.5,322.5C 197.473,324.199 196.806,325.533 195.5,326.5 Z"/></g>
<g><path style="opacity:1" fill="#ffcccb" d="M 217.5,322.5 C 217.833,322.5 218.167,322.5 218.5,322.5C 218.5,329.167 218.5,335.833 218.5,342.5C 215.918,342.975 213.918,342.308 212.5,340.5C 214.167,340.5 215.833,340.5 217.5,340.5C 217.5,334.5 217.5,328.5 217.5,322.5 Z"/></g>
<g><path style="opacity:1" fill="#ffe2e1" d="M 235.5,323.5 C 235.5,324.833 235.5,326.167 235.5,327.5C 232.545,326.841 229.545,326.508 226.5,326.5C 226.5,327.5 226.5,328.5 226.5,329.5C 230.69,328.973 234.023,330.306 236.5,333.5C 236.5,334.833 236.5,336.167 236.5,337.5C 232.568,342.498 227.568,343.664 221.5,341C 220.24,339.186 220.24,337.353 221.5,335.5C 224.404,337.286 227.404,337.619 230.5,336.5C 228.941,334.869 226.941,334.036 224.5,334C 218.26,327.251 219.76,323.084 229,321.5C 231.484,321.497 233.651,322.163 235.5,323.5 Z"/></g>
<g><path style="opacity:1" fill="#ffe4e3" d="M 238.5,336.5 C 238.5,333.5 238.5,330.5 238.5,327.5C 239.277,324.888 240.944,323.055 243.5,322C 247.188,321.55 250.854,321.717 254.5,322.5C 254.5,324.5 254.5,326.5 254.5,328.5C 246.264,324.093 242.764,326.427 244,335.5C 247.128,338.1 250.295,338.1 253.5,335.5C 254.76,337.353 254.76,339.186 253.5,341C 247.001,343.932 242.001,342.432 238.5,336.5 Z"/></g>
<g><path style="opacity:1" fill="#fff2f1" d="M 270.5,323.5 C 272.043,327.032 271.709,330.365 269.5,333.5C 270.467,335.79 271.8,337.79 273.5,339.5C 272.448,341.256 270.781,341.923 268.5,341.5C 267.219,338.553 265.219,336.219 262.5,334.5C 261.539,336.265 261.205,338.265 261.5,340.5C 260.167,340.5 258.833,340.5 257.5,340.5C 257.5,334.5 257.5,328.5 257.5,322.5C 261.881,322.372 266.215,322.705 270.5,323.5 Z"/></g>
<g><path style="opacity:1" fill="#fff9f9" d="M 276.5,322.5 C 279.833,322.5 283.167,322.5 286.5,322.5C 286.5,323.833 286.5,325.167 286.5,326.5C 285.5,326.5 284.5,326.5 283.5,326.5C 282.517,330.298 282.183,334.298 282.5,338.5C 283.675,338.281 284.675,338.614 285.5,339.5C 282.833,340.833 280.167,340.833 277.5,339.5C 279.087,335.152 280.087,330.652 280.5,326C 279.207,325.51 277.873,325.343 276.5,325.5C 276.5,324.5 276.5,323.5 276.5,322.5 Z"/></g>
<g><path style="opacity:1" fill="#fff0ef" d="M 300.5,322.5 C 301.926,323.341 303.26,324.341 304.5,325.5C 304.5,327.167 304.5,328.833 304.5,330.5C 302.364,334.235 299.031,335.902 294.5,335.5C 294.5,337.5 294.5,339.5 294.5,341.5C 293.167,341.5 291.833,341.5 290.5,341.5C 290.5,335.167 290.5,328.833 290.5,322.5C 293.833,322.5 297.167,322.5 300.5,322.5 Z"/></g>
<g><path style="opacity:1" fill="#ffe0df" d="M 306.5,336.5 C 306.5,333.5 306.5,330.5 306.5,327.5C 309.953,321.394 314.953,319.894 321.5,323C 322.406,324.699 322.739,326.533 322.5,328.5C 312.502,324.332 309.836,327.165 314.5,337C 317.035,337.617 319.368,337.117 321.5,335.5C 322.76,337.353 322.76,339.186 321.5,341C 315.058,343.936 310.058,342.436 306.5,336.5 Z"/></g>
<g><path style="opacity:1" fill="#fff1f1" d="M 335.5,322.5 C 334.664,325.592 333.997,328.759 333.5,332C 333.997,335.241 334.664,338.408 335.5,341.5C 332.167,341.5 328.833,341.5 325.5,341.5C 325.5,340.5 325.5,339.5 325.5,338.5C 326.5,338.5 327.5,338.5 328.5,338.5C 328.666,334.486 328.499,330.486 328,326.5C 326.294,325.692 325.461,324.359 325.5,322.5C 328.833,322.5 332.167,322.5 335.5,322.5 Z"/></g>
<g><path style="opacity:1" fill="#ffe1e0" d="M 349.5,341.5 C 346.482,341.296 343.482,340.963 340.5,340.5C 335.193,334.942 335.193,329.275 340.5,323.5C 346.454,320.354 351.62,321.354 356,326.5C 358.012,333.678 355.845,338.678 349.5,341.5 Z"/></g>
<g><path style="opacity:1" fill="#fff4f4" d="M 379.5,322.5 C 383.833,322.5 388.167,322.5 392.5,322.5C 392.5,323.5 392.5,324.5 392.5,325.5C 389.833,325.5 387.167,325.5 384.5,325.5C 384.5,327.167 384.5,328.833 384.5,330.5C 386.833,330.5 389.167,330.5 391.5,330.5C 391.5,331.5 391.5,332.5 391.5,333.5C 389.167,333.5 386.833,333.5 384.5,333.5C 384.5,335.167 384.5,336.833 384.5,338.5C 387.167,338.5 389.833,338.5 392.5,338.5C 392.5,339.5 392.5,340.5 392.5,341.5C 388.167,341.5 383.833,341.5 379.5,341.5C 379.5,335.167 379.5,328.833 379.5,322.5 Z"/></g>
<g><path style="opacity:1" fill="#ffe3e2" d="M 400.5,322.5 C 403.86,322.616 407.193,322.949 410.5,323.5C 410.5,324.833 410.5,326.167 410.5,327.5C 407.473,326.491 404.473,326.491 401.5,327.5C 404.878,328.72 408.045,330.387 411,332.5C 412.005,339 409.172,342.334 402.5,342.5C 400.423,342.308 398.423,341.808 396.5,341C 395.24,339.186 395.24,337.353 396.5,335.5C 399.404,337.286 402.404,337.619 405.5,336.5C 403.539,334.887 401.206,333.887 398.5,333.5C 394.045,328.778 394.712,325.111 400.5,322.5 Z"/></g>
<g><path style="opacity:1" fill="#ffc1c0" d="M 270.5,323.5 C 266.215,322.705 261.881,322.372 257.5,322.5C 257.5,328.5 257.5,334.5 257.5,340.5C 258.833,340.5 260.167,340.5 261.5,340.5C 261.205,338.265 261.539,336.265 262.5,334.5C 262.5,337.167 262.5,339.833 262.5,342.5C 260.5,342.5 258.5,342.5 256.5,342.5C 256.5,335.5 256.5,328.5 256.5,321.5C 260.514,321.334 264.514,321.501 268.5,322C 269.416,322.278 270.082,322.778 270.5,323.5 Z"/></g>
<g><path style="opacity:1" fill="#ff4439" d="M 235.5,323.5 C 236.167,325.167 236.833,326.833 237.5,328.5C 237.784,330.415 237.451,332.081 236.5,333.5C 234.023,330.306 230.69,328.973 226.5,329.5C 226.5,328.5 226.5,327.5 226.5,326.5C 229.545,326.508 232.545,326.841 235.5,327.5C 235.5,326.167 235.5,324.833 235.5,323.5 Z"/></g>
<g><path style="opacity:1" fill="#ff473f" d="M 262.5,326.5 C 263.833,326.5 265.167,326.5 266.5,326.5C 266.5,327.5 266.5,328.5 266.5,329.5C 265.167,329.5 263.833,329.5 262.5,329.5C 262.5,328.5 262.5,327.5 262.5,326.5 Z"/></g>
<g><path style="opacity:1" fill="#ff4337" d="M 294.5,326.5 C 296.948,326.01 298.615,326.843 299.5,329C 298.381,330.876 296.714,331.709 294.5,331.5C 294.5,329.833 294.5,328.167 294.5,326.5 Z"/></g>
<g><path style="opacity:1" fill="#ff3024" d="M 345.5,326.5 C 351.663,327.789 352.996,331.123 349.5,336.5C 345.029,338.046 342.696,336.379 342.5,331.5C 342.771,329.307 343.771,327.641 345.5,326.5 Z"/></g>
<g><path style="opacity:1" fill="#ff6b6a" d="M 283.5,326.5 C 284.5,326.5 285.5,326.5 286.5,326.5C 284.702,329.831 284.036,333.498 284.5,337.5C 283.518,334.038 283.185,330.371 283.5,326.5 Z"/></g>
<g><path style="opacity:1" fill="#ffb0af" d="M 335.5,322.5 C 332.167,322.5 328.833,322.5 325.5,322.5C 325.461,324.359 326.294,325.692 328,326.5C 328.499,330.486 328.666,334.486 328.5,338.5C 327.5,338.5 326.5,338.5 325.5,338.5C 325.5,339.5 325.5,340.5 325.5,341.5C 328.833,341.5 332.167,341.5 335.5,341.5C 332.038,342.482 328.371,342.815 324.5,342.5C 325.22,339.042 325.887,335.542 326.5,332C 325.887,328.458 325.22,324.958 324.5,321.5C 328.371,321.185 332.038,321.518 335.5,322.5 Z"/></g>
<g><path style="opacity:1" fill="#ffa29f" d="M 561.5,326.5 C 560.514,328.408 558.848,329.408 556.5,329.5C 557.659,327.75 559.326,326.75 561.5,326.5 Z"/></g>
<g><path style="opacity:1" fill="#ffa2a1" d="M 379.5,322.5 C 379.5,322.167 379.5,321.833 379.5,321.5C 384.167,321.5 388.833,321.5 393.5,321.5C 393.5,323.167 393.5,324.833 393.5,326.5C 390.833,326.5 388.167,326.5 385.5,326.5C 385.5,327.5 385.5,328.5 385.5,329.5C 388.167,329.5 390.833,329.5 393.5,329.5C 393.714,331.144 393.38,332.644 392.5,334C 390.19,334.497 387.857,334.663 385.5,334.5C 385.5,335.5 385.5,336.5 385.5,337.5C 388.167,337.5 390.833,337.5 393.5,337.5C 393.5,339.167 393.5,340.833 393.5,342.5C 388.637,342.819 383.97,342.486 379.5,341.5C 383.833,341.5 388.167,341.5 392.5,341.5C 392.5,340.5 392.5,339.5 392.5,338.5C 389.833,338.5 387.167,338.5 384.5,338.5C 384.5,336.833 384.5,335.167 384.5,333.5C 386.833,333.5 389.167,333.5 391.5,333.5C 391.5,332.5 391.5,331.5 391.5,330.5C 389.167,330.5 386.833,330.5 384.5,330.5C 384.5,328.833 384.5,327.167 384.5,325.5C 387.167,325.5 389.833,325.5 392.5,325.5C 392.5,324.5 392.5,323.5 392.5,322.5C 388.167,322.5 383.833,322.5 379.5,322.5 Z"/></g>
<g><path style="opacity:1" fill="#ff8d8b" d="M 304.5,325.5 C 305.167,326.167 305.833,326.833 306.5,327.5C 306.5,330.5 306.5,333.5 306.5,336.5C 305.833,334.5 305.167,332.5 304.5,330.5C 304.5,328.833 304.5,327.167 304.5,325.5 Z"/></g>
<g><path style="opacity:1" fill="#ff8686" d="M 238.5,327.5 C 238.5,330.5 238.5,333.5 238.5,336.5C 237.833,336.833 237.167,337.167 236.5,337.5C 236.5,336.167 236.5,334.833 236.5,333.5C 237.451,332.081 237.784,330.415 237.5,328.5C 237.5,327.833 237.833,327.5 238.5,327.5 Z"/></g>
<g><path style="opacity:1" fill="#ffd5d5" d="M 276.5,322.5 C 276.5,323.5 276.5,324.5 276.5,325.5C 277.873,325.343 279.207,325.51 280.5,326C 280.087,330.652 279.087,335.152 277.5,339.5C 280.167,340.833 282.833,340.833 285.5,339.5C 284.675,338.614 283.675,338.281 282.5,338.5C 282.183,334.298 282.517,330.298 283.5,326.5C 283.185,330.371 283.518,334.038 284.5,337.5C 285.167,337.5 285.833,337.5 286.5,337.5C 286.5,338.833 286.5,340.167 286.5,341.5C 283.167,341.5 279.833,341.5 276.5,341.5C 275.566,340.432 275.232,339.099 275.5,337.5C 276.5,337.5 277.5,337.5 278.5,337.5C 278.5,333.833 278.5,330.167 278.5,326.5C 277.5,326.5 276.5,326.5 275.5,326.5C 275.232,324.901 275.566,323.568 276.5,322.5 Z"/></g>
<g><path style="opacity:1" fill="#ff9897" d="M 189.5,326.5 C 190.483,330.298 190.817,334.298 190.5,338.5C 189.5,338.5 188.5,338.5 187.5,338.5C 187.5,339.5 187.5,340.5 187.5,341.5C 190.833,341.5 194.167,341.5 197.5,341.5C 197.473,339.801 196.806,338.467 195.5,337.5C 196.5,337.5 197.5,337.5 198.5,337.5C 198.5,339.167 198.5,340.833 198.5,342.5C 194.5,342.5 190.5,342.5 186.5,342.5C 186.5,340.833 186.5,339.167 186.5,337.5C 187.5,337.5 188.5,337.5 189.5,337.5C 189.5,333.833 189.5,330.167 189.5,326.5 Z"/></g>
<g><path style="opacity:1" fill="#ff9e9e" d="M 273.5,339.5 C 274.404,340.209 274.737,341.209 274.5,342.5C 272.265,342.795 270.265,342.461 268.5,341.5C 270.781,341.923 272.448,341.256 273.5,339.5 Z"/></g>
<g><path style="opacity:1" fill="#ff8f8d" d="M 286.5,337.5 C 287.451,338.919 287.784,340.585 287.5,342.5C 283.629,342.815 279.962,342.482 276.5,341.5C 279.833,341.5 283.167,341.5 286.5,341.5C 286.5,340.167 286.5,338.833 286.5,337.5 Z"/></g>
<g><path style="opacity:1" fill="#ff9391" d="M 340.5,340.5 C 343.482,340.963 346.482,341.296 349.5,341.5C 346.373,342.815 343.373,342.482 340.5,340.5 Z"/></g>
<g><path style="opacity:1" fill="#ff4442" d="M 379.5,321.5 C 379.5,321.833 379.5,322.167 379.5,322.5C 379.5,328.833 379.5,335.167 379.5,341.5C 383.97,342.486 388.637,342.819 393.5,342.5C 388.695,343.487 383.695,343.821 378.5,343.5C 378.175,335.981 378.508,328.648 379.5,321.5 Z"/></g>
<g><path style="opacity:1" fill="#ff9797" d="M 18.5,348.5 C 35.8333,349.167 53.1667,349.833 70.5,350.5C 52.4877,350.833 34.4877,350.5 16.5,349.5C 16.9569,348.702 17.6236,348.369 18.5,348.5 Z"/></g>
<g><path style="opacity:1" fill="#ffd4d4" d="M 587.5,349.5 C 589.652,350.077 589.985,351.244 588.5,353C 566.503,353.5 544.503,353.667 522.5,353.5C 522.823,360.022 522.49,366.355 521.5,372.5C 521.5,365.833 521.5,359.167 521.5,352.5C 543.503,352.667 565.503,352.5 587.5,352C 588.598,351.23 588.598,350.397 587.5,349.5 Z"/></g>
<g><path style="opacity:1" fill="#ffbfbe" d="M 215.5,363.5 C 215.664,360.813 215.497,358.146 215,355.5C 212.861,354.231 210.695,354.231 208.5,355.5C 210.045,356.452 211.712,356.785 213.5,356.5C 213.975,359.082 213.308,361.082 211.5,362.5C 212.301,360.958 212.634,359.292 212.5,357.5C 210.856,357.286 209.356,357.62 208,358.5C 206.833,353.667 208.667,351.834 213.5,353C 217.213,354.691 218.379,357.525 217,361.5C 216.722,362.416 216.222,363.082 215.5,363.5 Z"/></g>
<g><path style="opacity:1" fill="#ffbbba" d="M 247.5,354.5 C 245.076,354.192 242.743,354.526 240.5,355.5C 241.949,356.172 243.282,356.839 244.5,357.5C 243.07,357.421 241.736,357.754 240.5,358.5C 238.95,355.207 239.95,353.207 243.5,352.5C 245.171,352.668 246.504,353.335 247.5,354.5 Z"/></g>
<g><path style="opacity:1" fill="#ff8583" d="M 318.5,353.5 C 315.833,353.5 313.167,353.5 310.5,353.5C 311.451,356.215 312.117,359.049 312.5,362C 312.494,364.033 312.161,365.866 311.5,367.5C 311.82,364.102 311.487,360.768 310.5,357.5C 309.141,358.624 308.141,359.958 307.5,361.5C 307.511,359.453 307.844,357.453 308.5,355.5C 308.124,353.197 307.124,352.863 305.5,354.5C 307.223,353.2 309.39,352.533 312,352.5C 314.361,352.504 316.527,352.837 318.5,353.5 Z"/></g>
<g><path style="opacity:1" fill="#ffedec" d="M 222.5,353.5 C 223.5,353.5 224.5,353.5 225.5,353.5C 225.181,358.363 225.514,363.03 226.5,367.5C 227.5,367.5 228.5,367.5 229.5,367.5C 229.5,368.5 229.5,369.5 229.5,370.5C 226.167,370.5 222.833,370.5 219.5,370.5C 219.285,368.821 219.952,367.821 221.5,367.5C 222.16,366.036 222.493,364.369 222.5,362.5C 222.33,360.285 221.663,358.285 220.5,356.5C 221.243,355.818 221.909,355.151 222.5,354.5C 222.5,354.167 222.5,353.833 222.5,353.5 Z"/></g>
<g><path style="opacity:1" fill="#ffe6e6" d="M 247.5,354.5 C 249.026,355.492 249.693,356.992 249.5,359C 249.137,361.509 248.137,363.676 246.5,365.5C 245.711,365.783 245.044,366.283 244.5,367C 246.134,367.494 247.801,367.66 249.5,367.5C 249.5,368.5 249.5,369.5 249.5,370.5C 246.167,370.5 242.833,370.5 239.5,370.5C 241.454,366.262 243.121,361.929 244.5,357.5C 243.282,356.839 241.949,356.172 240.5,355.5C 242.743,354.526 245.076,354.192 247.5,354.5 Z"/></g>
<g><path style="opacity:1" fill="#ffdbd9" d="M 287.5,352.5 C 296.079,354.125 298.745,359.125 295.5,367.5C 291.5,371.5 287.5,371.5 283.5,367.5C 281.503,361.405 282.836,356.405 287.5,352.5 Z"/></g>
<g><path style="opacity:1" fill="#ffe9e9" d="M 318.5,353.5 C 318.5,354.5 318.5,355.5 318.5,356.5C 317.5,356.5 316.5,356.5 315.5,356.5C 315.185,360.371 315.518,364.038 316.5,367.5C 318.048,367.821 318.715,368.821 318.5,370.5C 315.5,370.5 312.5,370.5 309.5,370.5C 309.285,368.821 309.952,367.821 311.5,367.5C 312.161,365.866 312.494,364.033 312.5,362C 312.117,359.049 311.451,356.215 310.5,353.5C 313.167,353.5 315.833,353.5 318.5,353.5 Z"/></g>
<g><path style="opacity:1" fill="#fff3f3" d="M 320.5,353.5 C 323.167,353.5 325.833,353.5 328.5,353.5C 328.5,354.5 328.5,355.5 328.5,356.5C 326.833,356.5 325.167,356.5 323.5,356.5C 323.5,357.5 323.5,358.5 323.5,359.5C 325.167,359.5 326.833,359.5 328.5,359.5C 328.5,360.5 328.5,361.5 328.5,362.5C 326.833,362.5 325.167,362.5 323.5,362.5C 323.5,364.167 323.5,365.833 323.5,367.5C 325.167,367.5 326.833,367.5 328.5,367.5C 326.365,369.369 323.698,370.036 320.5,369.5C 320.5,364.167 320.5,358.833 320.5,353.5 Z"/></g>
<g><path style="opacity:1" fill="#ffc9c9" d="M 355.5,353.5 C 353.5,353.5 351.5,353.5 349.5,353.5C 349.5,358.833 349.5,364.167 349.5,369.5C 351.833,369.5 354.167,369.5 356.5,369.5C 354.052,370.473 351.385,370.806 348.5,370.5C 348.5,364.5 348.5,358.5 348.5,352.5C 351.059,352.198 353.393,352.532 355.5,353.5 Z"/></g>
<g><path style="opacity:1" fill="#fff2f2" d="M 355.5,353.5 C 355.833,353.5 356.167,353.5 356.5,353.5C 357.088,356.61 357.755,359.61 358.5,362.5C 359.167,362.5 359.5,362.833 359.5,363.5C 359.5,364.833 359.5,366.167 359.5,367.5C 358.5,368.167 357.5,368.833 356.5,369.5C 354.167,369.5 351.833,369.5 349.5,369.5C 349.5,364.167 349.5,358.833 349.5,353.5C 351.5,353.5 353.5,353.5 355.5,353.5 Z"/></g>
<g><path style="opacity:1" fill="#ff807f" d="M 369.5,353.5 C 366.833,353.5 364.167,353.5 361.5,353.5C 361.5,359.167 361.5,364.833 361.5,370.5C 360.833,369.5 360.167,368.5 359.5,367.5C 359.5,366.167 359.5,364.833 359.5,363.5C 360.482,360.038 360.815,356.371 360.5,352.5C 363.713,352.19 366.713,352.523 369.5,353.5 Z"/></g>
<g><path style="opacity:1" fill="#ffe4e3" d="M 369.5,353.5 C 371.823,356.688 372.156,360.188 370.5,364C 371.769,366.084 372.769,368.251 373.5,370.5C 371.712,370.785 370.045,370.452 368.5,369.5C 366.101,364.025 365.101,364.359 365.5,370.5C 364.167,370.5 362.833,370.5 361.5,370.5C 361.5,364.833 361.5,359.167 361.5,353.5C 364.167,353.5 366.833,353.5 369.5,353.5 Z"/></g>
<g><path style="opacity:1" fill="#ff9595" d="M 378.5,357.5 C 379.919,356.549 381.585,356.216 383.5,356.5C 383.5,355.5 383.5,354.5 383.5,353.5C 380.833,353.5 378.167,353.5 375.5,353.5C 375.5,359.167 375.5,364.833 375.5,370.5C 374.51,364.69 374.177,358.69 374.5,352.5C 378.167,352.5 381.833,352.5 385.5,352.5C 385.714,354.144 385.38,355.644 384.5,357C 382.527,357.495 380.527,357.662 378.5,357.5 Z"/></g>
<g><path style="opacity:1" fill="#ffebea" d="M 378.5,357.5 C 379.919,358.451 381.585,358.784 383.5,358.5C 383.5,359.833 383.5,361.167 383.5,362.5C 381.833,362.5 380.167,362.5 378.5,362.5C 378.5,364.167 378.5,365.833 378.5,367.5C 380.5,367.5 382.5,367.5 384.5,367.5C 384.5,368.5 384.5,369.5 384.5,370.5C 381.5,370.5 378.5,370.5 375.5,370.5C 375.5,364.833 375.5,359.167 375.5,353.5C 378.167,353.5 380.833,353.5 383.5,353.5C 383.5,354.5 383.5,355.5 383.5,356.5C 381.585,356.216 379.919,356.549 378.5,357.5 Z"/></g>
<g><path style="opacity:1" fill="#ffa3a1" d="M 356.5,353.5 C 358.388,355.988 359.055,358.988 358.5,362.5C 357.755,359.61 357.088,356.61 356.5,353.5 Z"/></g>
<g><path style="opacity:1" fill="#ff8f8d" d="M 319.5,353.5 C 322.625,352.521 325.958,352.187 329.5,352.5C 329.5,354.167 329.5,355.833 329.5,357.5C 322.833,357.833 322.833,358.167 329.5,358.5C 329.768,360.099 329.434,361.432 328.5,362.5C 328.5,361.5 328.5,360.5 328.5,359.5C 326.833,359.5 325.167,359.5 323.5,359.5C 323.5,358.5 323.5,357.5 323.5,356.5C 325.167,356.5 326.833,356.5 328.5,356.5C 328.5,355.5 328.5,354.5 328.5,353.5C 325.833,353.5 323.167,353.5 320.5,353.5C 320.167,353.5 319.833,353.5 319.5,353.5 Z"/></g>
<g><path style="opacity:1" fill="#ff8888" d="M 341.5,353.5 C 342.919,352.549 344.585,352.216 346.5,352.5C 346.823,358.69 346.49,364.69 345.5,370.5C 345.5,364.833 345.5,359.167 345.5,353.5C 344.167,353.5 342.833,353.5 341.5,353.5 Z"/></g>
<g><path style="opacity:1" fill="#ff9a9a" d="M 273.5,353.5 C 272.167,353.5 270.833,353.5 269.5,353.5C 269.5,359.167 269.5,364.833 269.5,370.5C 268.51,364.69 268.177,358.69 268.5,352.5C 270.415,352.216 272.081,352.549 273.5,353.5 Z"/></g>
<g><path style="opacity:1" fill="#ff3a2d" d="M 287.5,357.5 C 292.213,357.468 293.713,359.801 292,364.5C 290.857,367.915 289.19,368.249 287,365.5C 286.278,362.739 286.445,360.073 287.5,357.5 Z"/></g>
<g><path style="opacity:1" fill="#ff9393" d="M 318.5,356.5 C 316.702,359.831 316.036,363.498 316.5,367.5C 315.518,364.038 315.185,360.371 315.5,356.5C 316.5,356.5 317.5,356.5 318.5,356.5 Z"/></g>
<g><path style="opacity:1" fill="#ffc5c5" d="M 319.5,353.5 C 319.833,353.5 320.167,353.5 320.5,353.5C 320.5,358.833 320.5,364.167 320.5,369.5C 323.698,370.036 326.365,369.369 328.5,367.5C 329.404,368.209 329.737,369.209 329.5,370.5C 326.167,370.5 322.833,370.5 319.5,370.5C 319.5,364.833 319.5,359.167 319.5,353.5 Z"/></g>
<g><path style="opacity:1" fill="#ff3226" d="M 365.5,357.5 C 366.5,357.5 367.5,357.5 368.5,357.5C 368.5,358.5 368.5,359.5 368.5,360.5C 367.5,360.5 366.5,360.5 365.5,360.5C 365.5,359.5 365.5,358.5 365.5,357.5 Z"/></g>
<g><path style="opacity:1" fill="#ff9a9a" d="M 222.5,353.5 C 223.568,352.566 224.901,352.232 226.5,352.5C 226.5,357.5 226.5,362.5 226.5,367.5C 225.514,363.03 225.181,358.363 225.5,353.5C 224.5,353.5 223.5,353.5 222.5,353.5 Z"/></g>
<g><path style="opacity:1" fill="#ff6d66" d="M 351.5,356.5 C 352.5,356.5 353.5,356.5 354.5,356.5C 354.5,357.5 354.5,358.5 354.5,359.5C 353.5,359.5 352.5,359.5 351.5,359.5C 351.5,358.5 351.5,357.5 351.5,356.5 Z"/></g>
<g><path style="opacity:1" fill="#ffefef" d="M 273.5,353.5 C 274.5,355.5 275.5,357.5 276.5,359.5C 276.281,360.675 276.614,361.675 277.5,362.5C 278.167,359.5 278.833,356.5 279.5,353.5C 280.495,358.792 280.828,364.125 280.5,369.5C 278.801,369.473 277.467,368.806 276.5,367.5C 272.856,359.73 271.523,360.73 272.5,370.5C 271.5,370.5 270.5,370.5 269.5,370.5C 269.5,364.833 269.5,359.167 269.5,353.5C 270.833,353.5 272.167,353.5 273.5,353.5 Z"/></g>
<g><path style="opacity:1" fill="#ffe1e0" d="M 305.5,354.5 C 307.124,352.863 308.124,353.197 308.5,355.5C 307.844,357.453 307.511,359.453 307.5,361.5C 306.677,364.461 306.01,367.461 305.5,370.5C 303.833,370.5 302.167,370.5 300.5,370.5C 299.163,364.494 297.83,358.494 296.5,352.5C 298.144,352.286 299.644,352.62 301,353.5C 301.794,356.471 302.461,359.471 303,362.5C 303.782,359.69 304.616,357.023 305.5,354.5 Z"/></g>
<g><path style="opacity:1" fill="#ffe5e4" d="M 341.5,353.5 C 342.833,353.5 344.167,353.5 345.5,353.5C 345.5,359.167 345.5,364.833 345.5,370.5C 344.167,370.5 342.833,370.5 341.5,370.5C 341.66,368.801 341.494,367.134 341,365.5C 339.644,366.38 338.144,366.714 336.5,366.5C 336.657,365.127 336.49,363.793 336,362.5C 335.503,365.146 335.336,367.813 335.5,370.5C 334.167,370.5 332.833,370.5 331.5,370.5C 331.5,364.5 331.5,358.5 331.5,352.5C 333.722,352.178 335.556,352.845 337,354.5C 337.36,356.608 338.027,358.608 339,360.5C 339.39,357.896 340.224,355.562 341.5,353.5 Z"/></g>
<g><path style="opacity:1" fill="#ffe2e1" d="M 251.5,368.5 C 250.359,366.549 250.359,364.549 251.5,362.5C 251.223,359.552 251.556,356.719 252.5,354C 256.735,351.473 259.735,352.473 261.5,357C 261.329,361.163 260.995,365.329 260.5,369.5C 257.894,370.652 255.227,370.818 252.5,370C 251.944,369.617 251.611,369.117 251.5,368.5 Z"/></g>
<g><path style="opacity:1" fill="#ff554d" d="M 254.5,358.5 C 255.386,357.224 256.386,357.224 257.5,358.5C 256.575,359.562 255.575,359.562 254.5,358.5 Z"/></g>
<g><path style="opacity:1" fill="#ffb3b2" d="M 276.5,367.5 C 277.467,368.806 278.801,369.473 280.5,369.5C 280.828,364.125 280.495,358.792 279.5,353.5C 278.833,356.5 278.167,359.5 277.5,362.5C 276.614,361.675 276.281,360.675 276.5,359.5C 277.468,357.393 277.802,355.059 277.5,352.5C 278.833,352.5 280.167,352.5 281.5,352.5C 281.5,358.5 281.5,364.5 281.5,370.5C 279.833,370.5 278.167,370.5 276.5,370.5C 276.5,369.5 276.5,368.5 276.5,367.5 Z"/></g>
<g><path style="opacity:1" fill="#ff9c9a" d="M 222.5,354.5 C 221.909,355.151 221.243,355.818 220.5,356.5C 221.663,358.285 222.33,360.285 222.5,362.5C 222.493,364.369 222.16,366.036 221.5,367.5C 221.31,363.077 220.643,358.744 219.5,354.5C 220.5,354.5 221.5,354.5 222.5,354.5 Z"/></g>
<g><path style="opacity:1" fill="#ff9391" d="M 231.5,361.5 C 233.265,360.539 235.265,360.205 237.5,360.5C 237.5,362.167 237.5,363.833 237.5,365.5C 235.167,365.5 232.833,365.5 230.5,365.5C 230.232,363.901 230.566,362.568 231.5,361.5 Z"/></g>
<g><path style="opacity:1" fill="#ffeeee" d="M 231.5,361.5 C 233.167,361.5 234.833,361.5 236.5,361.5C 236.5,362.5 236.5,363.5 236.5,364.5C 234.833,364.5 233.167,364.5 231.5,364.5C 231.5,363.5 231.5,362.5 231.5,361.5 Z"/></g>
<g><path style="opacity:1" fill="#ff3d31" d="M 254.5,363.5 C 256.912,363.694 257.912,365.027 257.5,367.5C 256.5,367.5 255.5,367.5 254.5,367.5C 254.5,366.167 254.5,364.833 254.5,363.5 Z"/></g>
<g><path style="opacity:1" fill="#ff615a" d="M 351.5,363.5 C 352.833,363.5 354.167,363.5 355.5,363.5C 355.5,364.833 355.5,366.167 355.5,367.5C 354.167,367.5 352.833,367.5 351.5,367.5C 351.5,366.167 351.5,364.833 351.5,363.5 Z"/></g>
<g><path style="opacity:1" fill="#ffecec" d="M 215.5,363.5 C 209.846,366.962 210.513,368.296 217.5,367.5C 217.5,368.5 217.5,369.5 217.5,370.5C 214.167,370.5 210.833,370.5 207.5,370.5C 207.53,367.148 208.863,364.482 211.5,362.5C 213.308,361.082 213.975,359.082 213.5,356.5C 211.712,356.785 210.045,356.452 208.5,355.5C 210.695,354.231 212.861,354.231 215,355.5C 215.497,358.146 215.664,360.813 215.5,363.5 Z"/></g>
<g><path style="opacity:1" fill="#ff7471" d="M 251.5,362.5 C 250.359,364.549 250.359,366.549 251.5,368.5C 250.833,369.167 250.167,369.833 249.5,370.5C 249.5,369.5 249.5,368.5 249.5,367.5C 247.801,367.66 246.134,367.494 244.5,367C 245.044,366.283 245.711,365.783 246.5,365.5C 247.209,366.404 248.209,366.737 249.5,366.5C 249.229,364.62 249.896,363.287 251.5,362.5 Z"/></g>
<g><path style="opacity:1" fill="#ce766e" d="M 521.5,352.5 C 521.5,359.167 521.5,365.833 521.5,372.5C 517.03,373.486 512.363,373.819 507.5,373.5C 366.167,373.5 224.833,373.5 83.5,373.5C 78.9677,373.818 74.6344,373.485 70.5,372.5C 220.5,372.5 370.5,372.5 520.5,372.5C 520.176,365.646 520.509,358.979 521.5,352.5 Z"/></g>
<g><path style="opacity:1" fill="#77bbb2" d="M 83.5,373.5 C 224.833,373.5 366.167,373.5 507.5,373.5C 507.5,376.833 507.5,380.167 507.5,383.5C 366.167,383.5 224.833,383.5 83.5,383.5C 83.5,380.167 83.5,376.833 83.5,373.5 Z"/></g>
<g><path style="opacity:1" fill="#18b2a7" d="M 84.5,374.5 C 225.167,374.5 365.833,374.5 506.5,374.5C 506.5,376.833 506.5,379.167 506.5,381.5C 365.833,381.5 225.167,381.5 84.5,381.5C 84.5,379.167 84.5,376.833 84.5,374.5 Z"/></g>
<g><path style="opacity:1" fill="#30b4a9" d="M 258.5,396.5 C 259.376,396.369 260.043,396.702 260.5,397.5C 258.2,403.352 256.2,409.352 254.5,415.5C 252,411.833 249.5,408.167 247,404.5C 245.991,402.975 245.491,401.308 245.5,399.5C 250.12,399.26 254.453,398.26 258.5,396.5 Z"/></g>
<g><path style="opacity:1" fill="#36b5aa" d="M 535.5,407.5 C 536.833,407.5 538.167,407.5 539.5,407.5C 539.567,409.401 539.233,411.234 538.5,413C 535.501,417.486 533.168,422.32 531.5,427.5C 527.304,422.411 523.637,417.077 520.5,411.5C 526.06,411.665 531.06,410.331 535.5,407.5 Z"/></g>
<g><path style="opacity:1" fill="#38b5ab" d="M 137.5,430.5 C 138.873,430.343 140.207,430.51 141.5,431C 140.079,437.453 137.913,443.62 135,449.5C 132.035,445.068 129.202,440.568 126.5,436C 126.735,435.127 127.069,434.293 127.5,433.5C 130.953,432.487 134.287,431.487 137.5,430.5 Z"/></g>
<g><path style="opacity:1" fill="#2db4a9" d="M 415.5,430.5 C 416.833,430.5 418.167,430.5 419.5,430.5C 417.495,437.512 414.661,444.178 411,450.5C 406.645,445.646 402.478,440.646 398.5,435.5C 404.052,433.196 409.719,431.529 415.5,430.5 Z"/></g>
</svg>
