<?xml version="1.0" encoding="UTF-8"?>
<!DOCTYPE svg PUBLIC "-//W3C//DTD SVG 1.1//EN" "http://www.w3.org/Graphics/SVG/1.1/DTD/svg11.dtd">
<svg xmlns="http://www.w3.org/2000/svg" version="1.1" width="500px" height="100px" style="shape-rendering:geometricPrecision; text-rendering:geometricPrecision; image-rendering:optimizeQuality; fill-rule:evenodd; clip-rule:evenodd" xmlns:xlink="http://www.w3.org/1999/xlink">
<g><path style="opacity:1" fill="#00807f" d="M 174.5,19.5 C 190.827,34.9939 206.66,50.9939 222,67.5C 222.147,58.1167 222.813,48.7833 224,39.5C 224.718,40.4506 225.551,40.6172 226.5,40C 225.333,38.8333 224.167,37.6667 223,36.5C 222.171,31.1357 222.337,25.8023 223.5,20.5C 239.154,36.3214 254.654,52.3214 270,68.5C 270.5,52.8369 270.667,37.1702 270.5,21.5C 274.5,21.5 278.5,21.5 282.5,21.5C 282.667,44.1691 282.5,66.8358 282,89.5C 281.814,91.9005 281.314,94.2338 280.5,96.5C 264.846,80.6786 249.346,64.6786 234,48.5C 234.8,64.4319 234.634,80.4319 233.5,96.5C 217.539,81.3724 202.039,65.7057 187,49.5C 186.5,64.8297 186.333,80.163 186.5,95.5C 182.5,95.5 178.5,95.5 174.5,95.5C 174.5,70.1667 174.5,44.8333 174.5,19.5 Z"/></g>
<g><path style="opacity:1" fill="#00807f" d="M 49.5,20.5 C 60.5527,20.8356 71.5527,21.6689 82.5,23C 91.1054,25.9379 96.6054,31.7712 99,40.5C 99.6667,46.8333 99.6667,53.1667 99,59.5C 98.2754,61.9494 97.2754,64.2827 96,66.5C 92.7829,69.3805 89.9495,72.5471 87.5,76C 90.958,81.745 94.7913,87.245 99,92.5C 99.4828,93.448 99.6495,94.448 99.5,95.5C 94.8215,95.6658 90.1548,95.4992 85.5,95C 81.6391,89.9722 77.9724,84.8056 74.5,79.5C 70.2172,78.5078 65.8839,78.1744 61.5,78.5C 61.5,84.1667 61.5,89.8333 61.5,95.5C 57.5,95.5 53.5,95.5 49.5,95.5C 49.5,70.5 49.5,45.5 49.5,20.5 Z M 62.5,32.5 C 81.7282,30.5532 89.5616,38.8865 86,57.5C 82.9261,63.2908 78.0928,66.4574 71.5,67C 68.1832,67.4983 64.8499,67.665 61.5,67.5C 61.1887,55.7527 61.522,44.0861 62.5,32.5 Z"/></g>
<g><path style="opacity:1" fill="#00807f" d="M 372.5,96.5 C 371.5,96.5 370.5,96.5 369.5,96.5C 354.865,80.5302 339.865,64.8635 324.5,49.5C 324.5,48.8333 324.167,48.5 323.5,48.5C 323.5,47.8333 323.167,47.5 322.5,47.5C 322.5,46.8333 322.167,46.5 321.5,46.5C 321.5,45.8333 321.167,45.5 320.5,45.5C 320.5,44.8333 320.167,44.5 319.5,44.5C 317.949,41.4372 315.782,38.7705 313,36.5C 312.171,31.1357 312.337,25.8023 313.5,20.5C 328.792,36.2925 344.292,51.9592 360,67.5C 360.5,52.5037 360.667,37.5037 360.5,22.5C 364.5,22.5 368.5,22.5 372.5,22.5C 372.5,47.1667 372.5,71.8333 372.5,96.5 Z"/></g>
<g><path style="opacity:1" fill="#007f7f" d="M 106.5,21.5 C 110.833,21.5 115.167,21.5 119.5,21.5C 119.642,39.1753 120.142,56.8419 121,74.5C 123.086,81.7486 127.919,85.4153 135.5,85.5C 138.852,84.774 142.185,83.9407 145.5,83C 147.726,81.7727 149.226,79.9393 150,77.5C 151.404,58.8704 151.904,40.2037 151.5,21.5C 156.167,21.5 160.833,21.5 165.5,21.5C 165.059,41.1991 164.226,60.8658 163,80.5C 157.63,91.6965 148.63,97.3632 136,97.5C 114.732,95.5579 105.065,83.8912 107,62.5C 106.5,48.8374 106.333,35.1707 106.5,21.5 Z"/></g>
<g><path style="opacity:1" fill="#00807f" d="M 291.5,21.5 C 295.5,21.5 299.5,21.5 303.5,21.5C 303.5,46.1667 303.5,70.8333 303.5,95.5C 299.5,95.5 295.5,95.5 291.5,95.5C 291.5,70.8333 291.5,46.1667 291.5,21.5 Z"/></g>
<g><path style="opacity:1" fill="#00807f" d="M 409.5,21.5 C 418.552,21.1929 427.552,21.6929 436.5,23C 442.675,24.2455 447.675,27.2455 451.5,32C 451.138,33.2247 450.638,34.3914 450,35.5C 447.372,37.1255 445.039,39.1255 443,41.5C 431.847,33.6327 420.014,32.1327 407.5,37C 394.895,46.7723 392.062,58.939 399,73.5C 409.01,83.7544 420.844,86.5877 434.5,82C 437.076,81.2178 439.076,79.7178 440.5,77.5C 439.624,76.7492 438.624,76.2492 437.5,76C 431.843,75.5006 426.176,75.3339 420.5,75.5C 420.5,71.5 420.5,67.5 420.5,63.5C 431.833,63.5 443.167,63.5 454.5,63.5C 454.666,71.5069 454.5,79.5069 454,87.5C 436.993,97.2312 419.16,99.0645 400.5,93C 381.593,82.997 375.093,67.497 381,46.5C 383.035,40.9306 386.202,36.0973 390.5,32C 396.316,27.4282 402.649,23.9282 409.5,21.5 Z"/></g>
<g><path style="opacity:1" fill="#00807f" d="M 319.5,44.5 C 320.167,44.5 320.5,44.8333 320.5,45.5C 321.167,45.5 321.5,45.8333 321.5,46.5C 322.167,46.5 322.5,46.8333 322.5,47.5C 323.167,47.5 323.5,47.8333 323.5,48.5C 324.167,48.5 324.5,48.8333 324.5,49.5C 324.45,65.1771 324.783,80.8437 325.5,96.5C 321.167,96.5 316.833,96.5 312.5,96.5C 312.167,77.4883 312.5,58.4883 313.5,39.5C 315.519,41.1897 317.519,42.8564 319.5,44.5 Z"/></g>
<g><path style="opacity:0.004" fill="#000000" d="M 477.5,76.5 C 478.833,77.1667 478.833,77.1667 477.5,76.5 Z"/></g>
<g><path style="opacity:0.004" fill="#000000" d="M 477.5,77.5 C 476.833,78.1667 476.833,78.1667 477.5,77.5 Z"/></g>
<g><path style="opacity:0.004" fill="#000000" d="M 476.5,78.5 C 475.833,79.1667 475.833,79.1667 476.5,78.5 Z"/></g>
<g><path style="opacity:0.004" fill="#000000" d="M 475.5,79.5 C 475.643,81.2624 475.309,82.9291 474.5,84.5C 475.363,87.3216 476.196,89.9883 477,92.5C 472.994,88.4857 472.494,84.1524 475.5,79.5 Z"/></g>
<g><path style="opacity:0.336" fill="#000000" d="M 369.5,96.5 C 370.5,96.5 371.5,96.5 372.5,96.5C 371.74,98.9845 370.74,98.9845 369.5,96.5 Z"/></g>
</svg>
