<?xml version="1.0" standalone="no"?>
<!DOCTYPE svg PUBLIC "-//W3C//DTD SVG 20010904//EN"
 "http://www.w3.org/TR/2001/REC-SVG-20010904/DTD/svg10.dtd">
<svg version="1.0" xmlns="http://www.w3.org/2000/svg"
 width="400.000000pt" height="80.000000pt" viewBox="0 0 400.000000 80.000000"
 preserveAspectRatio="xMidYMid meet">

<g transform="translate(0.000000,80.000000) scale(0.100000,-0.100000)"
fill="#000000" stroke="none">
<path d="M1120 353 l0 -303 45 0 45 0 0 193 0 192 53 -55 c30 -30 113 -118
186 -195 73 -77 138 -142 143 -144 8 -3 9 53 6 183 l-6 186 -33 39 c-19 22
-37 40 -41 40 -5 1 -8 -51 -8 -114 0 -63 -2 -115 -4 -115 -2 0 -48 46 -102
102 -55 57 -141 146 -191 198 l-93 95 0 -302z"/>
<path d="M120 346 l0 -296 45 0 44 0 3 68 3 67 50 3 51 3 48 -71 48 -70 54 0
c30 0 54 2 54 5 0 3 -25 39 -56 81 -56 75 -56 76 -35 91 66 46 91 97 91 188 0
100 -31 155 -111 197 -37 20 -62 24 -166 27 l-123 3 0 -296z m236 194 c48 -24
74 -67 74 -125 0 -90 -62 -145 -164 -145 l-54 0 -1 135 c-1 75 1 140 4 145 11
17 97 11 141 -10z"/>
<path d="M582 418 c3 -204 5 -226 25 -263 28 -53 60 -81 112 -100 115 -40 241
-2 293 90 22 38 23 51 26 268 l3 227 -50 0 -51 0 0 -215 c0 -240 -5 -262 -62
-286 -37 -15 -109 -15 -139 1 -11 6 -29 26 -39 43 -18 29 -20 52 -20 245 l0
212 -51 0 -51 0 4 -222z"/>
<path d="M1511 585 l-1 -60 226 -240 c125 -132 230 -241 235 -243 5 -2 9 127
9 297 l0 301 -45 0 -45 0 0 -192 -1 -193 -189 195 -189 195 0 -60z"/>
<path d="M2060 345 l0 -295 45 0 45 0 0 295 0 295 -45 0 -45 0 0 -295z"/>
<path d="M2230 585 l0 -60 206 -220 c113 -121 218 -233 235 -250 l29 -30 0
303 0 302 -45 0 -46 0 1 -177 c0 -98 1 -183 0 -190 0 -11 -72 61 -313 312
l-67 70 0 -60z"/>
<path d="M2985 627 c-88 -30 -158 -86 -198 -161 -31 -59 -31 -203 0 -261 84
-157 303 -211 496 -122 l77 36 0 90 0 91 -135 0 -135 0 0 -45 0 -45 80 0 c71
0 80 -2 80 -18 0 -30 -73 -57 -150 -57 -124 0 -209 70 -218 179 -5 66 11 117
51 162 46 53 82 68 163 68 58 -1 79 -6 122 -29 l52 -28 35 33 c32 31 33 35 19
51 -8 9 -39 27 -67 40 -64 27 -211 36 -272 16z"/>
<path d="M2230 267 l0 -227 46 0 47 0 -5 186 -5 185 -41 42 -42 42 0 -228z"/>
<path d="M3584 208 c-41 -10 -67 -41 -67 -79 0 -42 31 -70 87 -76 46 -6 110
12 101 27 -3 5 -19 1 -36 -7 -19 -9 -42 -13 -62 -9 -31 6 -67 32 -67 48 0 4
41 8 90 8 50 0 90 4 90 10 0 5 -5 20 -11 33 -18 40 -72 59 -125 45z m76 -23
c17 -9 30 -22 30 -30 0 -12 -16 -15 -75 -15 -41 0 -75 4 -75 9 0 15 51 51 72
51 10 0 32 -7 48 -15z"/>
<path d="M3788 199 c-10 -5 -18 -19 -18 -30 0 -21 20 -32 88 -49 48 -12 55
-34 17 -52 -19 -8 -35 -8 -66 1 -46 14 -66 7 -25 -9 60 -23 136 -7 136 29 0
24 -19 39 -61 47 -69 13 -88 36 -46 55 17 7 35 8 60 1 20 -6 39 -7 42 -2 12
19 -97 27 -127 9z"/>
</g>
</svg>
